<?xml version="1.0" standalone="no"?><!DOCTYPE svg PUBLIC "-//W3C//DTD SVG 1.1//EN" "http://www.w3.org/Graphics/SVG/1.1/DTD/svg11.dtd">
<svg class="icon" fill="green" width="200px" height="200.00px" viewBox="0 0 1024 1024" version="1.1" xmlns="http://www.w3.org/2000/svg">
<path d="M356.631932 705.435571c-50.564629 45.246507-84.09428 42.508139-118.258381 8.223289l-39.131229-41.993416
c-34.168194-34.265408-34.168194-89.836051 0-124.117832l167.473269-167.984922c34.168194-34.282804 89.568968-34.282804 123.733069 0l30.92329 31.014364
c26.391067 26.481118 32.408107 65.659419 18.024515 97.92324l74.771961 57.229422c51.259454-51.410903 51.259454-134.768403 0-186.167027l-92.797499-93.086072
c-51.246151-51.414997-134.329405-51.414997-185.586812 0l-229.343385 230.054583c-51.245128 51.398624-51.245128 134.749984 0 186.16498l92.801593 93.087095c51.242058
51.398624 134.341684 51.398624 185.600115 0l88.532359-91.556229-63.246463-60.688197L356.631932 705.435571 356.631932 705.435571z
M923.4924 317.497121l-92.789313-93.086072c-51.254338-51.414997-134.340661-51.414997-185.599092 0 0 0 3.659343-0.921999-50.251497 53.157687l61.625546
59.074444 27.38572-30.224372c34.168194-34.265408 89.568968-34.265408 123.737162 0l30.931476 31.032784c34.169217 34.264385 34.169217
89.835028 0 124.117832L687.455569 618.591667c-34.168194 34.265408-89.552595 34.265408-123.719766 0l-25.473161-41.996486
c-53.628408-40.08495-37.147038-49.671283-32.594349-76.731592l-68.02428-67.341734c-51.258431 51.414997-51.258431 134.76738 0
186.167027l92.789313 93.102445c51.254338 51.398624 134.340661 51.398624 185.600115 0l207.457936-208.128201C996.618884 419.345764 923.4924
317.497121 923.4924 317.497121L923.4924 317.497121zM923.4924 317.497121" />
</svg>