<?xml version="1.0" encoding="utf-8"?>
<!-- Generator: Adobe Illustrator 16.0.0, SVG Export Plug-In . SVG Version: 6.00 Build 0)  -->
<!DOCTYPE svg PUBLIC "-//W3C//DTD SVG 1.1//EN" "http://www.w3.org/Graphics/SVG/1.1/DTD/svg11.dtd">
<svg version="1.1" id="图层_1" xmlns="http://www.w3.org/2000/svg" xmlns:xlink="http://www.w3.org/1999/xlink" x="0px" y="0px"
	 width="200px" height="200px" viewBox="0 0 200 200" enable-background="new 0 0 200 200" xml:space="preserve">
<path d="M130.688,55.996c9.577-7.442,24.619-7.864,33.53-0.939c8.911,6.924,8.369,18.614-1.209,26.056l-26.915,20.917l9.463,7.354
	l26.914-20.916c14.821-11.517,15.364-29.768,1.21-40.765c-14.15-10.998-37.637-10.577-52.457,0.939L94.31,69.558l9.462,7.354
	L130.688,55.996z"/>
<path d="M72.371,151.55c-9.579,7.443-24.621,7.863-33.532,0.938c-8.911-6.924-8.368-18.612,1.21-26.057l26.452-20.556l-9.464-7.354
	l-26.453,20.557c-14.82,11.517-15.361,29.767-1.209,40.764c14.152,10.999,37.638,10.577,52.458-0.939l26.453-20.557l-9.463-7.354
	L72.371,151.55z"/>
<path d="M51.447,93.516C51.447,93.516,51.447,93.516,51.447,93.516H21.516c-3.21,0-5.812-2.021-5.812-4.516
	c0-2.494,2.602-4.517,5.812-4.517c0,0,0,0,0,0l29.931,0c3.21,0,5.812,2.022,5.812,4.517C57.259,91.495,54.656,93.516,51.447,93.516z
	"/>
<path d="M60.015,77.442c-1.487,0-2.974-0.441-4.109-1.323L34.741,59.672c-2.269-1.764-2.269-4.624,0-6.388
	c2.27-1.764,5.949-1.764,8.22,0l21.164,16.447c2.27,1.763,2.27,4.623,0,6.387C62.99,77,61.502,77.442,60.015,77.442z"/>
<path d="M80.701,70.784c-3.21,0-5.812-2.023-5.812-4.517v-23.26c0-2.494,2.602-4.516,5.812-4.516c3.21,0,5.812,2.022,5.812,4.516
	v23.26C86.513,68.761,83.911,70.784,80.701,70.784z"/>
<path d="M120.94,170.779c-3.209,0-5.812-2.021-5.812-4.517v-23.259c0-2.495,2.603-4.518,5.812-4.518c3.21,0,5.812,2.022,5.812,4.518
	v23.259C126.752,168.758,124.15,170.779,120.94,170.779z"/>
<path d="M162.791,157.309c-1.487,0-2.975-0.44-4.109-1.323l-21.164-16.447c-2.271-1.763-2.271-4.623,0-6.387
	c2.27-1.766,5.949-1.766,8.219,0l21.164,16.446c2.27,1.765,2.27,4.624,0,6.388C165.767,156.868,164.279,157.309,162.791,157.309z"/>
<path d="M180.126,124.786h-29.931c-3.21,0-5.813-2.021-5.813-4.516s2.603-4.518,5.813-4.518h29.931c3.21,0,5.812,2.023,5.812,4.518
	S183.336,124.786,180.126,124.786z"/>
</svg>
