<?xml version="1.0" standalone="no"?>
<!DOCTYPE svg PUBLIC "-//W3C//DTD SVG 1.1//EN" "http://www.w3.org/Graphics/SVG/1.1/DTD/svg11.dtd">
<svg class="icon" fill="#E0FF00" width="200px" height="200.00px" viewBox="0 0 1024 1024" version="1.1" xmlns="http://www.w3.org/2000/svg">
<path d="M780.076036 281.288454c-39.974433-93.184309-113.261577-155.13015-220.051765-181.739181-21.822005
-5.437849-46.715975-6.986111-73.678046-6.631024-7.611352 0.491187-15.226796 0.982374-22.839171
1.473561-16.575514 2.830465-32.561603 4.167926-47.399543 8.595772-55.625902 16.59905-100.765985
41.60149-136.795573 77.607542-26.402323 26.383904-50.018184 57.246819-66.065671
93.816712-8.788154 20.028149-15.296381 41.178865-21.12104 64.591087-2.563382 10.30367-2.712785
20.72809-4.666276 31.927153-2.501984 14.341636-3.425006 35.364439-0.73678 50.346665 6.037507 33.659611
13.885242 61.697177 25.541723 89.150436 19.893072 46.852074 43.86709 89.989547 69.502957
131.146922 42.820248 68.746734 89.388866 132.635833 137.28676 195.983603 17.025769 21.282722 34.057677 42.572608
51.083445 63.854307 8.103562 9.658987 16.210193 19.321044 24.314779 28.980032 0.326435 0.24457
0.653893 0.490164 0.981351 0.73678 6.794753-8.021697 13.59053-16.046464 20.384259-24.068162 15.962553-19.809161
31.9292-39.625486 47.891753-59.433624 28.483728-37.660738 57.347103-75.112722 84.729753-113.955378
23.076578-32.733519 44.331671-66.49546 65.819055-100.938923 31.662117-50.753941 60.810994-105.014752
80.308047-167.494759C814.038546 402.838811 801.875528 332.104817 780.076036 281.288454z
M625.351116 585.333192c-15.879666 0-31.764448 0
-47.645137 0 0-56.234769 0-112.487957 0-168.722726-61.801555 0
-123.622552 0-185.423083 0 0 56.234769 0 112.487957 0 168.722726
-15.880689 0-31.765471 0-47.645137 0 0-119.429043 0-238.892879 0
-358.320898 15.879666 0 31.764448 0 47.645137 0 0 49.031716 0
98.078783 0 147.110499 61.801555 0 123.622552 0 185.423083 0
0-49.03274 0-98.078783 0-147.110499 15.880689 0 31.765471 0 47.645137 0
C625.351116 346.441337 625.351116 465.904149 625.351116 585.333192z" />
</svg>