<?xml version="1.0" standalone="no"?><!DOCTYPE svg PUBLIC "-//W3C//DTD SVG 1.1//EN" "http://www.w3.org/Graphics/SVG/1.1/DTD/svg11.dtd">
<svg class="icon" fill="#20FF20" width="200px" height="200.00px" viewBox="0 0 1024 1024" version="1.1" xmlns="http://www.w3.org/2000/svg">
<path d="M730.214 877.238l50.625-42.662-47.408-484.26c125.086-132.575 169.91-189.211 152.455-212.15-22.94-17.456-79.576 27.316-212.15 152.455l-484.261-47.461-42.662 50.625 368.982 150.979-184.148 185.731-116.016-30.955-81.105 56.32 144.756 59.958c-4.115 3.375-34.964 39.393-37.283 62.279-0.106 1.213 0.738 1.793 1.793 2.109 0.317 1.055 0.949 1.952 2.109 1.793 22.887-2.32 58.904-33.17 62.279-37.283l59.958 144.756 56.32-81.106-30.955-116.016 185.73-184.148 150.979 369.036z" /></svg>