<?xml version="1.0" standalone="no"?><!DOCTYPE svg PUBLIC "-//W3C//DTD SVG 1.1//EN" "http://www.w3.org/Graphics/SVG/1.1/DTD/svg11.dtd"><svg class="icon" width="200px" height="200.00px" viewBox="0 0 1024 1024" version="1.1" xmlns="http://www.w3.org/2000/svg"><path d="M489.531777 325.502445c0 47.01478-38.132482 85.11861-85.149309 85.11861-46.998407 0-85.150332-38.102806-85.150332-85.11861 0-47.02092 38.151925-85.150332 85.150332-85.150332C451.400319 240.352113 489.531777 278.481526 489.531777 325.502445z" fill="#333333" /><path d="M385.582191 306.655161l34.987255 34.987255-290.806727 290.806727-34.987255-34.987255 290.806727-290.806727Z" fill="#333333" /><path d="M420.573392 306.648311l240.80302 240.80302-34.986531 34.986531-240.80302-240.80302 34.986531-34.986531Z" fill="#333333" /><path d="M919.969673 285.727184l34.987255 34.987255-290.768377 290.768377-34.987255-34.987255 290.768377-290.768377Z" fill="#333333" /><path d="M227.559251 576.983014c0 47.021943-38.151925 85.150332-85.147262 85.150332-47.045479 0-85.149309-38.128389-85.149309-85.150332s38.10383-85.148285 85.149309-85.148285C189.408349 491.834728 227.559251 529.96107 227.559251 576.983014z" fill="#333333" /><path d="M730.550063 576.983014c0 47.021943-38.126342 85.150332-85.148285 85.150332-47.019897 0-85.124749-38.128389-85.124749-85.150332S598.381881 491.834728 645.401778 491.834728C692.423721 491.834728 730.550063 529.96107 730.550063 576.983014z" fill="#333333" /><path d="M1003.007385 315.01151c0 46.998407-38.126342 85.149309-85.148285 85.149309-47.019897 0-85.148285-38.150902-85.148285-85.149309 0-47.01785 38.128389-85.149309 85.148285-85.149309C964.881043 229.862201 1003.007385 267.99366 1003.007385 315.01151z" fill="#000000" /></svg>