<?xml version="1.0" encoding="utf-8"?>
<!-- Generator: Adobe Illustrator 16.0.0, SVG Export Plug-In . SVG Version: 6.00 Build 0)  -->
<!DOCTYPE svg PUBLIC "-//W3C//DTD SVG 1.1//EN" "http://www.w3.org/Graphics/SVG/1.1/DTD/svg11.dtd">
<svg version="1.1" id="图层_1" xmlns="http://www.w3.org/2000/svg" xmlns:xlink="http://www.w3.org/1999/xlink" x="0px" y="0px"
	 width="200px" height="200px" viewBox="0 0 200 200" enable-background="new 0 0 200 200" xml:space="preserve">
<path d="M99.556,187.514c-11.807,0-23.264-2.314-34.055-6.878c-10.418-4.406-19.773-10.713-27.805-18.744
	c-8.032-8.032-14.338-17.386-18.744-27.805c-4.564-10.79-6.878-22.248-6.878-34.055c0-11.809,2.314-23.268,6.877-34.059
	c4.406-10.42,10.713-19.775,18.744-27.807c8.032-8.032,17.386-14.339,27.805-18.746c10.79-4.563,22.248-6.878,34.055-6.878
	s23.266,2.314,34.057,6.878c10.418,4.407,19.773,10.713,27.805,18.746c8.032,8.032,14.339,17.387,18.746,27.807
	c4.563,10.791,6.877,22.25,6.877,34.059c0,11.807-2.314,23.265-6.877,34.055c-4.408,10.419-10.714,19.773-18.746,27.805
	c-8.031,8.032-17.387,14.338-27.805,18.744C122.822,185.199,111.363,187.514,99.556,187.514z M99.556,28.532
	c-39.421,0-71.492,32.075-71.492,71.5c0,39.421,32.071,71.493,71.492,71.493c39.422,0,71.497-32.072,71.497-71.493
	C171.053,60.607,138.979,28.532,99.556,28.532z"/>
<path d="M149.189,96.059c0,6.521-5.289,11.814-11.814,11.814H57.876c-6.525,0-11.814-5.293-11.814-11.814l0,0
	c0-6.522,5.289-11.814,11.814-11.814h79.499C143.9,84.244,149.189,89.537,149.189,96.059L149.189,96.059z"/>
</svg>
