<?xml version="1.0" standalone="no"?><!DOCTYPE svg PUBLIC "-//W3C//DTD SVG 1.1//EN" "http://www.w3.org/Graphics/SVG/1.1/DTD/svg11.dtd"><svg t="1502269386611" class="icon" style="" viewBox="0 0 1024 1024" version="1.1" xmlns="http://www.w3.org/2000/svg" p-id="14712" xmlns:xlink="http://www.w3.org/1999/xlink" width="200" height="200"><defs><style type="text/css"></style></defs><path d="M509.726725 960.069969c-60.45079 0-119.112841-11.847839-174.36012-35.214013-53.340859-22.560832-101.239775-54.851259-142.359288-95.970772-41.122583-41.122583-73.40994-89.017406-95.970772-142.359288-23.366174-55.246255-35.214013-113.910353-35.214013-174.361143 0-60.46 11.847839-119.130238 35.211966-174.380586 22.560832-53.348022 54.851259-101.247962 95.970772-142.371568 41.122583-41.123606 89.017406-73.414033 142.361335-95.976912 55.244208-23.366174 113.908306-35.215036 174.36012-35.215036 60.45693 0 119.123075 11.847839 174.3724 35.215036 53.342906 22.560832 101.242845 54.852282 142.364405 95.975888 41.122583 41.12463 73.411987 89.024569 95.972818 142.372591 23.366174 55.250348 35.214013 113.920586 35.214013 174.380586 0 60.449767-11.847839 119.113865-35.214013 174.361143-22.562878 53.341882-54.851259 101.237729-95.972818 142.359288-41.12463 41.122583-89.021499 73.40994-142.364405 95.970772C628.8498 948.222129 570.181609 960.069969 509.726725 960.069969zM509.726725 146.08617c-201.834868 0-366.039697 164.223249-366.039697 366.079606 0 201.835891 164.204829 366.04072 366.039697 366.04072 201.845101 0 366.060163-164.204829 366.060163-366.04072C875.786888 310.308395 711.571826 146.08617 509.726725 146.08617z" p-id="14713"></path><path d="M763.85254 491.819378c0 33.391505-27.079752 60.488653-60.490699 60.488653L296.325427 552.308031c-33.408901 0-60.488653-27.097148-60.488653-60.488653l0 0c0-33.391505 27.079752-60.488653 60.488653-60.488653l407.036413 0C736.772788 431.330726 763.85254 458.428897 763.85254 491.819378L763.85254 491.819378z" p-id="14714"></path><path d="M509.736958 242.254439c33.391505 0 60.486606 27.079752 60.486606 60.491723l0 407.036413c0 33.408901-27.096125 60.488653-60.486606 60.488653l0 0c-33.391505 0-60.488653-27.079752-60.488653-60.488653L449.248306 302.746162C449.248306 269.334191 476.345454 242.254439 509.736958 242.254439L509.736958 242.254439z" p-id="14715"></path></svg>